<svg id="Layer_1" data-name="Layer 1" xmlns="http://www.w3.org/2000/svg" viewBox="0 0 435.35 155.16"><defs><style>.cls-1{fill:#231f20;}.cls-2{fill:#ed1c24;}</style></defs><title>logo-01</title><path class="cls-1" d="M27.3,120.45a13.51,13.51,0,0,1,.87-4.91,18,18,0,0,1,2.22-4.13,19.26,19.26,0,0,1,3-3.28,25.7,25.7,0,0,1,3.15-2.39,11,11,0,0,1-3.48-1.93,7.25,7.25,0,0,1-1.84-2.42,7.83,7.83,0,0,1-.71-2.71c-.07-.94-.11-1.89-.11-2.83A8.49,8.49,0,0,1,31,93.06a20.82,20.82,0,0,1,1.55-3.32,26,26,0,0,1,2.28-3.34,21,21,0,0,1,2.77-2.87,17.7,17.7,0,0,1-9.83-16.68,19.18,19.18,0,0,1,2.36-9.77,20.66,20.66,0,0,1,6.22-6.73,27.38,27.38,0,0,1,8.74-3.94A43.32,43.32,0,0,1,55,45a38.74,38.74,0,0,1,10.05,1,22.19,22.19,0,0,1,8,3.69,7.66,7.66,0,0,1,1.42-1.63,7.82,7.82,0,0,1,2.14-1.3,13.25,13.25,0,0,1,3-.85,25.29,25.29,0,0,1,4.07-.29h5.59v11H78.4A21.69,21.69,0,0,1,79.92,65a21,21,0,0,1-2.07,9.59,19.69,19.69,0,0,1-5.62,6.84,24.88,24.88,0,0,1-8.36,4.13,37.09,37.09,0,0,1-10.29,1.38A41.1,41.1,0,0,1,43.26,85.7a15.57,15.57,0,0,0-.62,2.71,17.13,17.13,0,0,0-.19,2.39,5.72,5.72,0,0,0,1.82,4.67Q46.08,97,49.83,97.1c1.7.07,3.64.12,5.81.14s4.67,0,7.5,0a47.26,47.26,0,0,1,12.08,1.28,18.42,18.42,0,0,1,7.36,3.61,12.16,12.16,0,0,1,3.66,5.54,23.33,23.33,0,0,1,1,7,18,18,0,0,1-2.15,8.66,20.13,20.13,0,0,1-6.3,6.92,32.81,32.81,0,0,1-10.29,4.62,53.4,53.4,0,0,1-14.06,1.68,64,64,0,0,1-10.67-.84A29,29,0,0,1,35.14,133a15.55,15.55,0,0,1-5.75-5A13,13,0,0,1,27.3,120.45ZM40.87,116a13,13,0,0,0,1.25,5.89,11.24,11.24,0,0,0,3.45,4.07,15.11,15.11,0,0,0,5.13,2.36,25.15,25.15,0,0,0,6.36.76,41.26,41.26,0,0,0,7-.54,15.05,15.05,0,0,0,5.22-1.82,8.62,8.62,0,0,0,3.23-3.34,10.68,10.68,0,0,0,1.11-5.1,22.37,22.37,0,0,0-.35-4,6.47,6.47,0,0,0-1.77-3.37,9.6,9.6,0,0,0-4.18-2.33,26.07,26.07,0,0,0-7.55-.87l-8.41-.06c-1.63,0-3.13,0-4.51-.08s-2.64-.15-3.8-.3a14.19,14.19,0,0,0-1.58,3.45A17.94,17.94,0,0,0,40.87,116ZM55,79.45a10.57,10.57,0,0,0,4.92-1,8.65,8.65,0,0,0,3.2-2.82,12,12,0,0,0,1.74-4.27A26.38,26.38,0,0,0,65.36,66q0-7.06-2.93-10.65t-8.69-3.58a13.78,13.78,0,0,0-4.07.6,8.91,8.91,0,0,0-3.48,2A9.51,9.51,0,0,0,43.78,58a15,15,0,0,0-.9,5.56,30.09,30.09,0,0,0,.6,6.14,14.69,14.69,0,0,0,2,5,10.21,10.21,0,0,0,3.75,3.45A11.84,11.84,0,0,0,55,79.45Z"/><path class="cls-1" d="M94.36,78.31a37.07,37.07,0,0,1,2.23-13A30.53,30.53,0,0,1,103,54.88a30.21,30.21,0,0,1,10-7,33.28,33.28,0,0,1,13.22-2.64,28.58,28.58,0,0,1,10.15,1.55,18.8,18.8,0,0,1,11.68,11.73,31.6,31.6,0,0,1,1.74,9.37,45,45,0,0,1-.17,6c-.18,1.72-.36,3.28-.54,4.69H110.16a1.39,1.39,0,0,0,0,.3,1.13,1.13,0,0,1,0,.25,30.93,30.93,0,0,0,1.87,9.5A18.1,18.1,0,0,0,116.16,95,15.44,15.44,0,0,0,122,98.62a21.55,21.55,0,0,0,7.06,1.14q2,0,4.26-.21c1.51-.15,3-.37,4.46-.66A41.46,41.46,0,0,0,142,97.81a26.39,26.39,0,0,0,3.8-1.52l2.5,5.86a21.51,21.51,0,0,1-4.61,2.91,37,37,0,0,1-6,2.25,50.35,50.35,0,0,1-14.07,1.85,34.26,34.26,0,0,1-12.46-2.23,25.34,25.34,0,0,1-9.21-6.14,26,26,0,0,1-5.67-9.63A39.75,39.75,0,0,1,94.36,78.31Zm40-7.44c.11-1.55.18-3.17.22-4.86a27.6,27.6,0,0,0-.3-4.86,14.88,14.88,0,0,0-1.3-4.29,8.06,8.06,0,0,0-2.8-3.2,9.28,9.28,0,0,0-2.66-1.2,12.62,12.62,0,0,0-3.47-.43,10.59,10.59,0,0,0-5.62,1.47,12.74,12.74,0,0,0-4.1,4,22,22,0,0,0-2.69,6,36.93,36.93,0,0,0-1.33,7.36Z"/><path class="cls-1" d="M160.45,101.55l7.6-1.3V60.88L160.5,56.1V50.78l17.65-5.27,3.32,1v9.67A11.22,11.22,0,0,1,184.29,52a23.46,23.46,0,0,1,4.45-3.39,26,26,0,0,1,5-2.29,15.08,15.08,0,0,1,4.64-.84c1.23,0,2.36.05,3.39.14a8.14,8.14,0,0,1,2.2.41V60.61A13.32,13.32,0,0,0,199.85,59a22.8,22.8,0,0,0-5.3-.62,26.49,26.49,0,0,0-4,.27,20.51,20.51,0,0,0-3.09.71,14.59,14.59,0,0,0-2.31.92,15.33,15.33,0,0,0-1.6.92V99.93l13.85,1.62v6.2H160.45Z"/><path class="cls-1" d="M211.77,88a13.08,13.08,0,0,1,2.71-6,21.17,21.17,0,0,1,5.16-4.59,33.49,33.49,0,0,1,6.74-3.29A56.8,56.8,0,0,1,233.76,72a64.08,64.08,0,0,1,7.17-1.14,60,60,0,0,1,6.08-.36V68.43a22.38,22.38,0,0,0-.92-7,9.94,9.94,0,0,0-2.64-4.26,8.91,8.91,0,0,0-4.1-2.09,24.12,24.12,0,0,0-5.32-.54,29.24,29.24,0,0,0-5.26.46A47.51,47.51,0,0,0,224,56.1a34.4,34.4,0,0,0-4,1.44c-1.2.53-2.19,1-3,1.44l-2.93-6.9a17.28,17.28,0,0,1,3.88-2.3,39.92,39.92,0,0,1,5.84-2.12A57.42,57.42,0,0,1,231,46.11a53.28,53.28,0,0,1,8.09-.6,42.81,42.81,0,0,1,9.23,1,18.79,18.79,0,0,1,7.44,3.37,16.2,16.2,0,0,1,4.95,6.52,26.3,26.3,0,0,1,1.79,10.45l-.06,34.75h7v4.84a13.19,13.19,0,0,1-2.72,1.3,22.71,22.71,0,0,1-3.17.87,29.14,29.14,0,0,1-3.34.46c-1.13.09-2.19.14-3.21.14a19.81,19.81,0,0,1-2.44-.19,9.09,9.09,0,0,1-2.72-.82,6,6,0,0,1-2.22-1.84,5.31,5.31,0,0,1-.93-3.29v-.49a23.86,23.86,0,0,1-6.84,4.7,23,23,0,0,1-9.88,1.93,26.13,26.13,0,0,1-10.05-1.74,17.54,17.54,0,0,1-6.7-4.67A15.16,15.16,0,0,1,211.85,96,20,20,0,0,1,211.77,88Zm15.2,1.9q0,5.82,3.15,8.26c2.1,1.63,5.13,2.3,9.07,2a10.8,10.8,0,0,0,4.26-1.28A23.68,23.68,0,0,0,247,96.61c0-3.18,0-6.35,0-9.5s0-6.32,0-9.5c-1.3,0-2.71.07-4.21.21a33,33,0,0,0-4.48.76,25.5,25.5,0,0,0-4.26,1.47,15.18,15.18,0,0,0-3.61,2.28,10.64,10.64,0,0,0-2.53,3.23A9.6,9.6,0,0,0,227,89.93Z"/><path class="cls-1" d="M275.57,101.55l7.66-1.35V30.8l-7.93-2.61V21.84l20.64-2.5,2.71,1.08v79.72l9.62,1.41v6.2h-32.7Z"/><path class="cls-1" d="M339.49,109.16a23.83,23.83,0,0,1-8.85-1.77,22.2,22.2,0,0,1-8-5.51,28.78,28.78,0,0,1-5.81-9.56,38.63,38.63,0,0,1-2.25-13.95A33.18,33.18,0,0,1,317.2,65a31.93,31.93,0,0,1,7.19-10.48,33.27,33.27,0,0,1,10.67-6.87,34.65,34.65,0,0,1,13.12-2.47c1.16,0,2.42,0,3.8.13a29.82,29.82,0,0,1,4.35.63V30.8l-11.84-2.61V21.84l24.16-2.5,3.1,1.36v80.85h7.55v5a23.42,23.42,0,0,1-5.65,1.91,39.37,39.37,0,0,1-8.69.86,11.8,11.8,0,0,1-5.3-1.05,5.23,5.23,0,0,1-2.68-3.83,22.68,22.68,0,0,1-2.64,1.65,19.29,19.29,0,0,1-3.72,1.5,38.29,38.29,0,0,1-4.94,1.08A40.11,40.11,0,0,1,339.49,109.16Zm4.51-8.58a16.32,16.32,0,0,0,4.78,0,19,19,0,0,0,4.5-.76,12.18,12.18,0,0,0,3.05-1.36V54.8q-3.37-2.88-9.67-2.88a14.49,14.49,0,0,0-3.07.38,12.76,12.76,0,0,0-3.5,1.39,17,17,0,0,0-3.51,2.66,16.47,16.47,0,0,0-3,4.2,27.78,27.78,0,0,0-2.2,6.09,37.28,37.28,0,0,0-.92,8.25,44.08,44.08,0,0,0,.95,10.59,27.85,27.85,0,0,0,2.93,7.74,16.46,16.46,0,0,0,4.4,5A12.76,12.76,0,0,0,344,100.58Z"/><path class="cls-2" d="M393,100.52a8.88,8.88,0,0,1,1-4.12,11.64,11.64,0,0,1,6-5.52,10.12,10.12,0,0,1,3.83-.78,11.17,11.17,0,0,1,4.15.7,8,8,0,0,1,2.91,1.93,8.06,8.06,0,0,1,1.71,2.82,10.24,10.24,0,0,1,.57,3.45,9.21,9.21,0,0,1-.95,4.21,10.37,10.37,0,0,1-2.5,3.2,11,11,0,0,1-3.53,2,11.83,11.83,0,0,1-4,.71,10.41,10.41,0,0,1-3.4-.57,8.65,8.65,0,0,1-2.93-1.69,8.44,8.44,0,0,1-2.06-2.71A8.15,8.15,0,0,1,393,100.52Z"/></svg>