<svg id="Layer_1" data-name="Layer 1" xmlns="http://www.w3.org/2000/svg" viewBox="0 0 200 200"><title>icons</title><path d="M136.39,73.61h-3v30.56H62.56c0,3.45-.09,6.7,0,10,0,1.34,1,1.81,3.28,2.19v4.44a7,7,0,0,1-8.07-6.93c-.05-6.74,0-13.49,0-20.23V91.36H53.31c-1.86,0-3.71,0-5.57,0a2.34,2.34,0,1,1,0-4.68c2.69,0,5.38,0,8.07,0h1.86V79c-2.45,0-4.87,0-7.3,0a5.92,5.92,0,0,1-1.46-.08A2.34,2.34,0,0,1,47,76.47a2.27,2.27,0,0,1,2.3-2.21c2.15-.07,4.3,0,6.45,0h2v-4c-.53,0-1-.07-1.56-.07-5.37,0-10.75,0-16.12,0a2.47,2.47,0,0,1-2.69-2.32,2.36,2.36,0,0,1,2.13-2.38,10.18,10.18,0,0,1,1.46,0H57.66a25.3,25.3,0,0,1,.27-2.62,7.15,7.15,0,0,1,7.18-5.73q15.24,0,30.48,0H124.9q8.39,0,8.43,8.35V68.8h8.14a7.67,7.67,0,0,1,7.75,5.11c2.4,5.6,4.77,11.22,7.24,16.8a3.39,3.39,0,0,0,1.67,1.56c2.21.91,4.5,1.6,6.73,2.46a6.87,6.87,0,0,1,4.75,6.58c.13,4.64.1,9.28,0,13.92-.07,3.52-2.73,5.94-6,5.54v-4.34c1.29-.28,1.25-1.37,1.24-2.53,0-4-.06-7.91,0-11.87a2.77,2.77,0,0,0-2.16-3,8.45,8.45,0,0,1-1.1-.39,28.22,28.22,0,0,0-14.24-2.47c-1.7.13-3.42.05-5.13,0a5.57,5.57,0,0,1-5.83-6c0-5,0-10,0-15ZM95.52,95.83A14.9,14.9,0,1,0,80.62,81,14.91,14.91,0,0,0,95.52,95.83Zm56-4.45c-2.44-5.67-4.72-11.1-7.14-16.46a2.49,2.49,0,0,0-3.2-1.21v2.52q0,6.81,0,13.62c0,.86.09,1.55,1.23,1.54C145.34,91.36,148.27,91.38,151.54,91.38Z"/><path d="M76.13,129c-3.79-3.18-5.64-6.92-5.22-11.61a12.44,12.44,0,0,1,4.45-8.62,12.89,12.89,0,0,1,17.75,1c4,4.25,5.63,12.76-1.66,19.18h46.8c-3.56-2.92-5.4-6.45-5.24-10.84a12.43,12.43,0,0,1,4.18-9.06,13,13,0,0,1,17.89.51c4.25,4.3,5.86,12.95-1.55,19.45.72,0,1.21.1,1.69.1,6.3,0,12.61,0,18.91,0,.71,0,1.68,0,2.06.44a3.81,3.81,0,0,1,.95,2.5c-.09,1.18-1.12,1.77-2.33,1.77-3.28,0-6.55,0-9.82,0H50.52c-.4,0-.79,0-1.18,0A2.44,2.44,0,0,1,47,131.46a2.29,2.29,0,0,1,2.33-2.33c3.27-.07,6.54,0,9.81,0H74.39C74.86,129.09,75.32,129,76.13,129Zm11.63-10.37a4.07,4.07,0,1,0-8.13-.13,4.07,4.07,0,1,0,8.13.13Zm58.17-4.14a4,4,0,0,0-4.13,4,4.06,4.06,0,1,0,8.12.12A4,4,0,0,0,145.93,114.47Z"/><path d="M128.05,120.87H101.56v-4.58h26.49Z"/><path d="M93.18,76.08c0-1.56,0-3.12,0-4.68a2.38,2.38,0,0,1,2.36-2.6,2.4,2.4,0,0,1,2.37,2.61c0,2.35,0,4.69,0,7a3,3,0,0,0,1,2.57c1.45,1.31,2.8,2.72,4.16,4.12s1.27,2.58.22,3.61-2.42.89-3.63-.3c-1.88-1.85-3.78-3.68-5.56-5.62a4,4,0,0,1-.89-2.2c-.13-1.5,0-3,0-4.54Z"/></svg>