<svg id="Layer_1" data-name="Layer 1" xmlns="http://www.w3.org/2000/svg" viewBox="0 0 120 120"><defs><style>.cls-1{fill:#ff9c00;stroke:#ff9c00;stroke-miterlimit:10;stroke-width:1.5px;}</style></defs><title>icons</title><path class="cls-1" d="M17.66,67.36H21v3.33H17.66Z"/><path class="cls-1" d="M9.33,74h3.33v3.33H9.33Z"/><path class="cls-1" d="M16,25.69H36V29H16Z"/><path class="cls-1" d="M9.33,25.69h3.33V29H9.33Z"/><path class="cls-1" d="M19.33,32.36h3.33v3.33H19.33Z"/><path class="cls-1" d="M98.72,49.34A34.66,34.66,0,0,1,106,70.69a35,35,0,0,1-69.67,4.78A1.67,1.67,0,0,0,34.67,74H16v3.33H33.24a38.34,38.34,0,0,0,76.09-6.67,38,38,0,0,0-8-23.39Z"/><path class="cls-1" d="M41,70.69A30,30,0,1,0,82.66,43.05l6.18-6.18a1.66,1.66,0,0,0,.49-1.18v-25h0a1.53,1.53,0,0,0-.11-.63,1.66,1.66,0,0,0-1.54-1H54.33a1.64,1.64,0,0,0-1.18.49l-6.67,6.66A1.67,1.67,0,0,0,46,17.36v15H26v3.33H46v6A38.41,38.41,0,0,0,32.8,67.36H24.33v3.33h10A1.66,1.66,0,0,0,36,69.1,35,35,0,0,1,48.34,44h9A30,30,0,0,0,41,70.69ZM82.66,38.34V18.05L86,14.72V35ZM80.3,15.69h-12l3.33-3.33h12ZM55,12.36H67l-3.33,3.33h-12ZM49.33,40.69V19H62.66v8.33H66V19H79.33V40.69Zm6.92,7.8,3.29,5.7,2.89-1.67-3.28-5.68a26.43,26.43,0,0,1,10.18-2.73v6.58h3.33V44.11a26.43,26.43,0,0,1,10.18,2.73l-3.29,5.7,2.89,1.66,3.3-5.71A26.86,26.86,0,0,1,93.19,56l-5.71,3.3,1.67,2.88,5.7-3.29A26.52,26.52,0,0,1,97.57,69H91v3.33h6.59a26.43,26.43,0,0,1-2.73,10.18l-5.7-3.29-1.67,2.89,5.72,3.29a26.76,26.76,0,0,1-7.46,7.46l-3.3-5.71-2.89,1.67,3.29,5.7a26.42,26.42,0,0,1-10.18,2.72V90.69H69.33v6.59a26.43,26.43,0,0,1-10.18-2.73l3.28-5.69L59.54,87.2l-3.29,5.69a26.69,26.69,0,0,1-7.45-7.45l5.71-3.3-1.67-2.89-5.7,3.29a26.42,26.42,0,0,1-2.72-10.18H51V69H44.41a26.43,26.43,0,0,1,2.73-10.18l5.7,3.29,1.66-2.89L48.79,56a27,27,0,0,1,7.46-7.46Z"/><path class="cls-1" d="M71,77.36a6.63,6.63,0,0,0,5.73-10l7.12-7.12-2.36-2.36L74.36,65A6.65,6.65,0,1,0,71,77.36Zm0-10a3.34,3.34,0,1,1-3.33,3.33A3.34,3.34,0,0,1,71,67.36Z"/><path class="cls-1" d="M93.14,43.54l2.35-2.35,3.34,3.33-2.36,2.36Z"/></svg>