<svg id="Layer_1" data-name="Layer 1" xmlns="http://www.w3.org/2000/svg" viewBox="0 0 200 200"><title>icons</title><path d="M80,152.64a24,24,0,0,1-2.74-2c-3.75-3.68-7.45-7.4-11.14-11.14a1.4,1.4,0,0,0-1.67-.37q-9,3-18,6c-1.83.6-3.24.29-4.26-.93s-1.11-2.62-.18-4.36q8.13-15.08,16.27-30.15a1.46,1.46,0,0,0-.16-1.93,41.17,41.17,0,0,1-9.35-22.1c-1.32-13.12,2.84-24.45,11.85-34A41.24,41.24,0,0,1,86.79,38.53c13.16-1.4,24.52,2.82,34.06,11.87A41.57,41.57,0,0,1,133.74,75c1.77,11.88-1.3,22.58-8.59,32.05a2.64,2.64,0,0,0-.3,3.46c5.37,9.79,10.63,19.63,15.92,29.45,1.29,2.4.29,4.92-2.2,5.41a4.83,4.83,0,0,1-2.28-.24q-9-2.93-17.87-5.94a1.55,1.55,0,0,0-1.86.41q-5.49,5.58-11.07,11.06a23.85,23.85,0,0,1-2.73,2h-1.34a4.63,4.63,0,0,1-3-3.76c-1.3-5.5-2.7-11-4.07-16.45-.7-2.8-1.41-5.6-2.1-8.37H90.55c-.1.34-.2.62-.27.91-2,7.86-4,15.71-5.86,23.58-.45,1.88-1.13,3.45-3.12,4.09ZM55.56,81a35.32,35.32,0,0,0,35.67,35.9,35.33,35.33,0,0,0,35.93-35.65c0-20.41-15.43-36-35.73-36S55.57,60.79,55.56,81ZM104,142.12l1-1c2.87-2.87,5.76-5.72,8.6-8.62a3.85,3.85,0,0,1,4.37-1l3.26,1.13,9.27,3.08c-4-7.46-7.88-14.63-11.81-21.93a43.89,43.89,0,0,1-19.43,9.42C100.85,129.55,102.39,135.73,104,142.12ZM64,113.81c-3.94,7.33-7.8,14.49-11.81,21.93,4.41-1.46,8.48-2.76,12.51-4.17a4,4,0,0,1,4.63,1.17c2.83,2.9,5.71,5.75,8.58,8.62a10.57,10.57,0,0,0,.83.68c1.58-6.36,3.13-12.54,4.69-18.81A44,44,0,0,1,64,113.81Z"/><path d="M74.6,98.92c.38-2.23.83-4.86,1.27-7.49.27-1.54.5-3.08.8-4.6a1.64,1.64,0,0,0-.57-1.67c-2.81-2.69-5.58-5.44-8.39-8.14a3.57,3.57,0,0,1,2.1-6.36c3.82-.51,7.62-1.16,11.45-1.67a1.9,1.9,0,0,0,1.64-1.22c1.66-3.44,3.39-6.85,5-10.28a3.63,3.63,0,0,1,3.43-2.39,3.68,3.68,0,0,1,3.4,2.44c1.7,3.46,3.4,6.92,5.07,10.4a1.65,1.65,0,0,0,1.42,1c4,.54,7.92,1.15,11.88,1.74a3.53,3.53,0,0,1,2,6.05c-2.81,2.75-5.61,5.51-8.47,8.22a2.11,2.11,0,0,0-.7,2.15c.67,3.64,1.27,7.3,1.92,11,.45,2.51-.49,4.35-2.64,4.71a4.59,4.59,0,0,1-2.64-.47c-3.42-1.7-6.79-3.5-10.15-5.32a2.15,2.15,0,0,0-2.35,0c-3.42,1.87-6.87,3.68-10.33,5.46C77.27,103.76,74.55,102.12,74.6,98.92ZM91.36,66.61c-.3.55-.49.86-.65,1.18-.89,1.79-1.79,3.58-2.64,5.39a3.86,3.86,0,0,1-3.34,2.4c-1.54.17-3.08.43-4.62.67-.81.12-1.61.27-2.39.4,1.21,1.28,2.29,2.49,3.46,3.63,3.26,3.2,3.26,3.19,2.42,7.67-.3,1.58-.53,3.16-.83,5,2.33-1.22,4.41-2.26,6.44-3.39a4.24,4.24,0,0,1,4.51.11c2,1.11,4,2.12,6.11,3.25,0-.51,0-.8-.09-1.08-.34-1.94-.62-3.88-1-5.8a4.4,4.4,0,0,1,1.46-4.49c1.63-1.55,3.1-3.27,4.62-4.9a3.93,3.93,0,0,0-.54-.16c-2-.31-4.1-.67-6.16-.88A4.13,4.13,0,0,1,94.51,73C93.55,71,92.5,68.91,91.36,66.61Z"/></svg>