<svg id="Layer_1" data-name="Layer 1" xmlns="http://www.w3.org/2000/svg" viewBox="0 0 200 200"><title>icons</title><path d="M88.74,78a37,37,0,0,0,4.64-10.24,24.34,24.34,0,0,1,1.78-5,6.2,6.2,0,0,1,7.4-3.29c2.61.61,4.31,2.55,4.32,5.82,0,3.71-.44,7.42-.7,11.13,0,.5-.14,1-.24,1.71h1.59c5.64,0,11.3.14,16.94,0,5.39-.16,9.09,5.34,6.38,9.69a1.57,1.57,0,0,0,.2,1.29,6.19,6.19,0,0,1-1.57,8.7,1.43,1.43,0,0,0-.7,1.72,5.73,5.73,0,0,1-1.67,5.53,1.5,1.5,0,0,0-.5,1.8,6.31,6.31,0,0,1-4.94,8.21,15.12,15.12,0,0,1-2.86.21c-5.59,0-11.2-.1-16.79,0-4.87.13-9.34-.67-13.07-4.5-.66,3-2.66,3.5-5.15,3.39s-4.94,0-7.41,0c-2.76,0-4.09-1.32-4.1-4.08,0-7.22,0-14.43,0-21.65,0-2.82,0-5.65,0-8.47s1.36-4.07,4.11-4.1,5.25,0,7.87,0C86.6,75.91,87.1,76.13,88.74,78Zm20.35,32.34H120c1.06,0,2-.37,2-1.54s-1-1.52-2-1.57c-.6,0-1.21,0-1.81,0-1.79,0-2.85-.92-2.87-2.41s1-2.42,2.79-2.46c1.31,0,2.62,0,3.93,0,1,0,1.87-.36,1.91-1.52s-.87-1.51-1.83-1.61-1.71,0-2.57,0c-1.77,0-2.84-1-2.81-2.47s1.17-2.38,2.91-2.4,3.63,0,5.45,0c1.1,0,2.13-.32,2.11-1.61s-1-1.5-2.06-1.51c-1.46,0-2.92,0-4.38,0a2.46,2.46,0,1,1-.06-4.91c1-.07,2.12,0,3.18,0s2.58.22,2.86-1.46c.17-1.07-.94-1.67-2.87-1.67q-10.29,0-20.57,0c-2.12,0-3.06-1.09-2.76-3.16.15-1,.42-1.88.51-2.83.37-3.7.73-7.4,1-11.11,0-.54-.56-1.12-.86-1.68a5.9,5.9,0,0,0-1.81,1.09,5.33,5.33,0,0,0-.9,2.21A43.87,43.87,0,0,1,91.4,83a3.41,3.41,0,0,0-.59,1.79q-.06,9.84,0,19.67a3.41,3.41,0,0,0,.68,1.91,9.64,9.64,0,0,0,8.07,4C102.74,110.31,105.92,110.36,109.09,110.36Zm-28.44-1.52a3.12,3.12,0,1,0-3.17-3.1A3.07,3.07,0,0,0,80.65,108.84Z"/><path d="M62.08,116.54l-2.72,4.12C47.68,105.84,45,78.8,62.51,59a49.9,49.9,0,0,1,78.21,61.77l-2.83-4.25c7.48-12.11,9.37-25.22,4.77-39a44,44,0,0,0-17.9-23.13,45.12,45.12,0,0,0-62.68,62.18Z"/><path d="M82.11,132a7.58,7.58,0,0,1-1,1.55c-1.35,1.43-2.76,2.8-4.21,4.13a2.07,2.07,0,0,0-.74,2.24c.42,1.86.69,3.76,1,5.65a2.54,2.54,0,0,1-3.91,2.84c-1.77-.94-3.54-1.92-5.36-2.77a2.33,2.33,0,0,0-1.76,0c-1.82.85-3.59,1.83-5.36,2.79a2.6,2.6,0,0,1-3,0,2.55,2.55,0,0,1-.92-2.82,57.67,57.67,0,0,0,1-5.81,2.82,2.82,0,0,0-.64-1.95c-1.36-1.49-3-2.76-4.25-4.3a3.26,3.26,0,0,1-.73-2.64,3.36,3.36,0,0,1,2.17-1.7c2-.49,4.08-.61,6.1-1a2.33,2.33,0,0,0,1.42-1c1-1.76,1.7-3.66,2.75-5.37A4,4,0,0,1,67,120.19a2.24,2.24,0,0,1,2.47,1.58c.86,1.82,1.73,3.64,2.7,5.4a2.35,2.35,0,0,0,1.43,1c2,.39,4,.63,6,.92A2.69,2.69,0,0,1,82.11,132Zm-15.28-4.12c-.75,4.1-3.29,5.51-7,5.57,3.44,2.06,3.84,4.93,2.85,8.41,3-2.52,5.89-2.25,8.73.13-.14-1.91-.7-3.6-.26-4.95s1.9-2.42,2.94-3.66C69.5,132.37,69.5,132.37,66.83,127.89Z"/><path d="M122.73,146.06c.34-1.95.78-4.12,1.06-6.31a2.61,2.61,0,0,0-.57-1.83c-1.37-1.48-2.86-2.84-4.31-4.24a2.54,2.54,0,0,1-.88-2.84,2.68,2.68,0,0,1,2.45-1.73c2-.27,4-.52,6-.91a2.35,2.35,0,0,0,1.41-1.06c.91-1.62,1.71-3.31,2.48-5,.53-1.13,1.22-2,2.56-2a2.73,2.73,0,0,1,2.6,1.94c.75,1.64,1.63,3.23,2.39,4.88a2,2,0,0,0,1.76,1.35c1.9.19,3.78.55,5.68.8a2.68,2.68,0,0,1,2.54,1.79,2.56,2.56,0,0,1-.93,2.82c-1.38,1.33-2.7,2.72-4.13,4a2.16,2.16,0,0,0-.71,2.28,52,52,0,0,1,1,5.8,3.84,3.84,0,0,1-.85,2.53,2.13,2.13,0,0,1-2.78.23c-1.73-.92-3.51-1.77-5.2-2.77a2.3,2.3,0,0,0-2.63,0c-1.69,1-3.44,1.9-5.2,2.75S122.7,148.32,122.73,146.06Zm3-12.65c3.3,2.14,4,4.91,2.71,8.48,3-2.37,5.88-2.46,8.72.09,0-.42,2.62-8.49,2.85-8.9-3.9.61-6-1.41-7.15-5C132,132,129.54,133.48,125.75,133.41Z"/><path d="M89.74,146.22c.34-1.94.69-4.08,1.1-6.2a2.14,2.14,0,0,0-.68-2.28c-1.43-1.27-2.75-2.66-4.12-4a2.6,2.6,0,0,1-1-2.81,2.78,2.78,0,0,1,2.67-1.86c1.9-.24,3.8-.48,5.67-.87a2.57,2.57,0,0,0,1.53-1.11c1-1.7,1.82-3.48,2.64-5.26a2.6,2.6,0,0,1,4.88,0c.82,1.79,1.67,3.56,2.64,5.27a2.57,2.57,0,0,0,1.53,1.11c1.92.39,3.88.63,5.82.9a2.71,2.71,0,0,1,2.53,1.83,2.61,2.61,0,0,1-1,2.8c-1.38,1.33-2.81,2.62-4.08,4a3,3,0,0,0-.7,2.07c.21,1.95.78,3.86.93,5.81a4.12,4.12,0,0,1-.87,2.67c-.68.84-1.8.69-2.78.17-1.83-1-3.63-2-5.51-2.82a2.57,2.57,0,0,0-1.89,0c-1.92.89-3.74,2-5.64,2.9A2.48,2.48,0,0,1,89.74,146.22Zm10.24-18c-1,3.8-3.49,5.23-7.21,5.2,3.27,2.11,4.07,4.85,2.74,8.46,3-2.37,5.91-2.41,8.95,0-1.29-3.61-.5-6.36,2.76-8.47C103.44,133.48,101.06,131.93,100,128.21Z"/></svg>