<svg id="Layer_1" data-name="Layer 1" xmlns="http://www.w3.org/2000/svg" viewBox="0 0 149.77 120"><defs><style>.cls-1{fill:#ff9c00;}</style></defs><title>icons</title><path class="cls-1" d="M60.07,116.21a23.05,23.05,0,0,1-2.62-1.94c-3.6-3.53-7.15-7.1-10.69-10.68a1.34,1.34,0,0,0-1.6-.36c-5.74,1.94-11.49,3.84-17.24,5.75-1.75.58-3.1.28-4.08-.88s-1.07-2.52-.17-4.18Q31.47,89.45,39.27,75a1.4,1.4,0,0,0-.15-1.86,39.54,39.54,0,0,1-9-21.18C28.88,39.39,32.88,28.52,41.52,19.4A39.54,39.54,0,0,1,66.62,6.8C79.24,5.46,90.13,9.51,99.28,18.19a39.77,39.77,0,0,1,12.36,23.53c1.7,11.4-1.24,21.65-8.24,30.74a2.53,2.53,0,0,0-.28,3.31c5.14,9.38,10.19,18.82,15.26,28.24,1.24,2.3.28,4.72-2.11,5.19a4.65,4.65,0,0,1-2.18-.23q-8.59-2.81-17.14-5.7a1.46,1.46,0,0,0-1.78.4q-5.26,5.34-10.61,10.6a23.17,23.17,0,0,1-2.63,1.94H80.65a4.43,4.43,0,0,1-2.92-3.6c-1.25-5.27-2.6-10.52-3.91-15.77q-1-4-2-8H70.23c-.1.33-.19.6-.26.87-1.88,7.54-3.79,15.06-5.62,22.61-.43,1.81-1.08,3.31-3,3.92ZM36.68,47.56A33.85,33.85,0,0,0,70.89,82,33.87,33.87,0,0,0,105.34,47.8c0-19.57-14.81-34.48-34.27-34.49S36.69,28.15,36.68,47.56Zm46.44,58.57c.43-.41.7-.66,1-.93,2.75-2.75,5.52-5.48,8.25-8.26a3.68,3.68,0,0,1,4.19-1c1,.36,2.08.74,3.13,1.09l8.89,3L97.22,79a42.18,42.18,0,0,1-18.63,9C80.1,94.08,81.58,100,83.12,106.13ZM44.78,79,33.46,100c4.23-1.4,8.13-2.65,12-4a3.87,3.87,0,0,1,4.44,1.12c2.72,2.78,5.48,5.52,8.23,8.27.21.21.46.38.79.65,1.53-6.09,3-12,4.5-18A42.22,42.22,0,0,1,44.78,79Z"/><path class="cls-1" d="M54.93,64.7c.37-2.13.8-4.66,1.23-7.18.25-1.47.47-3,.76-4.41a1.55,1.55,0,0,0-.54-1.59c-2.7-2.59-5.35-5.23-8.05-7.81a3.43,3.43,0,0,1,2-6.1c3.67-.49,7.31-1.11,11-1.6a1.81,1.81,0,0,0,1.57-1.17c1.6-3.3,3.25-6.57,4.85-9.86A3.47,3.47,0,0,1,71,22.69,3.54,3.54,0,0,1,74.29,25q2.44,5,4.86,10a1.58,1.58,0,0,0,1.35,1c3.81.52,7.6,1.1,11.4,1.67a3.37,3.37,0,0,1,2,5.79c-2.7,2.64-5.38,5.3-8.12,7.89a2,2,0,0,0-.68,2.06c.64,3.49,1.22,7,1.85,10.5.43,2.4-.47,4.18-2.54,4.52A4.46,4.46,0,0,1,81.85,68c-3.28-1.63-6.51-3.36-9.73-5.11a2.08,2.08,0,0,0-2.26,0c-3.27,1.79-6.58,3.52-9.9,5.23C57.5,69.35,54.89,67.78,54.93,64.7ZM71,33.72c-.29.53-.47.83-.63,1.14-.85,1.72-1.72,3.43-2.53,5.17a3.71,3.71,0,0,1-3.2,2.3c-1.48.16-3,.41-4.43.64-.78.11-1.55.26-2.29.39,1.16,1.22,2.2,2.38,3.31,3.48,3.13,3.07,3.14,3,2.32,7.35-.28,1.51-.5,3-.79,4.79C65,57.81,67,56.81,69,55.73a4.06,4.06,0,0,1,4.32.11c1.88,1.06,3.8,2,5.86,3.12,0-.49,0-.77-.09-1-.32-1.86-.59-3.73-1-5.57a4.23,4.23,0,0,1,1.4-4.3c1.57-1.49,3-3.14,4.43-4.69a2.57,2.57,0,0,0-.51-.16c-2-.3-3.93-.64-5.91-.85A3.93,3.93,0,0,1,74,39.88C73.1,37.88,72.1,35.93,71,33.72Z"/></svg>