<svg id="Layer_1" data-name="Layer 1" xmlns="http://www.w3.org/2000/svg" viewBox="0 0 120 120"><defs><style>.cls-1{fill:#ff9c00;}</style></defs><title>icons</title><path class="cls-1" d="M48.74,41.6a37.18,37.18,0,0,0,4.64-10.25,24.25,24.25,0,0,1,1.78-4.94,6.2,6.2,0,0,1,7.4-3.29c2.61.6,4.31,2.54,4.32,5.82,0,3.71-.44,7.42-.7,11.13,0,.49-.14,1-.24,1.7h1.59c5.64,0,11.3.14,16.94,0,5.39-.17,9.09,5.33,6.38,9.69a1.55,1.55,0,0,0,.2,1.28,6.19,6.19,0,0,1-1.57,8.7,1.44,1.44,0,0,0-.7,1.73,5.74,5.74,0,0,1-1.67,5.53,1.48,1.48,0,0,0-.5,1.79,6.32,6.32,0,0,1-4.94,8.22,16,16,0,0,1-2.86.21c-5.59,0-11.2-.1-16.79,0-4.87.13-9.34-.68-13.07-4.51-.66,3-2.66,3.51-5.15,3.4s-4.94,0-7.41,0c-2.76,0-4.09-1.32-4.1-4.08,0-7.21,0-14.43,0-21.64,0-2.83,0-5.65,0-8.48s1.36-4.06,4.11-4.1,5.25,0,7.87,0C46.6,39.49,47.1,39.71,48.74,41.6ZM69.09,73.93H80c1.06,0,2-.37,2-1.53s-1-1.53-2-1.57c-.6,0-1.21,0-1.81,0-1.79,0-2.85-.91-2.87-2.4s1-2.43,2.79-2.46c1.31,0,2.62,0,3.93,0,1,0,1.87-.37,1.91-1.53s-.87-1.51-1.83-1.6-1.71,0-2.57,0c-1.77-.05-2.84-1-2.81-2.47s1.17-2.39,2.91-2.41,3.63,0,5.45,0c1.1,0,2.13-.33,2.11-1.62s-1-1.49-2.06-1.5c-1.46,0-2.92,0-4.38,0a2.46,2.46,0,1,1-.06-4.92c1-.07,2.12,0,3.18,0s2.58.23,2.86-1.46c.17-1.06-.94-1.67-2.87-1.67q-10.29,0-20.57,0c-2.12,0-3.06-1.09-2.76-3.16.15-.94.42-1.87.51-2.82.37-3.7.73-7.4,1-11.11,0-.54-.56-1.12-.86-1.68a6.08,6.08,0,0,0-1.81,1.08,5.37,5.37,0,0,0-.9,2.22A43.75,43.75,0,0,1,51.4,46.57a3.41,3.41,0,0,0-.59,1.79q-.06,9.84,0,19.68a3.35,3.35,0,0,0,.68,1.9,9.65,9.65,0,0,0,8.07,4C62.74,73.89,65.92,73.93,69.09,73.93ZM40.65,72.41a3.11,3.11,0,1,0-3.17-3.1A3.06,3.06,0,0,0,40.65,72.41Z"/><path class="cls-1" d="M22.08,80.11l-2.72,4.13C7.68,69.41,5,42.37,22.51,22.56a49.9,49.9,0,0,1,78.21,61.78l-2.83-4.25c7.48-12.12,9.37-25.22,4.77-39a44,44,0,0,0-17.9-23.14A45.12,45.12,0,0,0,22.08,80.11Z"/><path class="cls-1" d="M42.11,95.58a7.61,7.61,0,0,1-1,1.56c-1.35,1.42-2.76,2.8-4.21,4.12a2.07,2.07,0,0,0-.74,2.24c.42,1.87.69,3.77,1,5.65A2.55,2.55,0,0,1,33.29,112c-1.77-1-3.54-1.93-5.36-2.78a2.33,2.33,0,0,0-1.76,0c-1.82.85-3.59,1.83-5.36,2.78a2.59,2.59,0,0,1-3,0,2.54,2.54,0,0,1-.92-2.82,57.2,57.2,0,0,0,1-5.81,2.82,2.82,0,0,0-.64-2c-1.36-1.49-3-2.76-4.25-4.29a3.27,3.27,0,0,1-.73-2.64,3.34,3.34,0,0,1,2.17-1.71c2-.49,4.08-.6,6.1-1a2.36,2.36,0,0,0,1.42-1c1-1.76,1.7-3.67,2.75-5.37A4,4,0,0,1,27,83.77a2.24,2.24,0,0,1,2.47,1.57c.86,1.82,1.73,3.64,2.7,5.4a2.4,2.4,0,0,0,1.43,1c2,.38,4,.62,6,.91A2.69,2.69,0,0,1,42.11,95.58ZM26.83,91.47c-.75,4.1-3.29,5.5-7,5.57,3.44,2,3.84,4.92,2.85,8.41,3-2.52,5.89-2.26,8.73.12-.14-1.91-.7-3.59-.26-4.95S33,98.2,34.08,97C29.5,95.94,29.5,95.94,26.83,91.47Z"/><path class="cls-1" d="M82.73,109.63c.34-1.94.78-4.12,1.06-6.31a2.58,2.58,0,0,0-.57-1.82c-1.37-1.49-2.86-2.85-4.31-4.25A2.54,2.54,0,0,1,78,94.41a2.67,2.67,0,0,1,2.45-1.72c2-.28,4-.53,6-.92a2.34,2.34,0,0,0,1.41-1c.91-1.63,1.71-3.31,2.48-5,.53-1.13,1.22-2,2.56-2a2.73,2.73,0,0,1,2.6,1.94c.75,1.65,1.63,3.24,2.39,4.88a2,2,0,0,0,1.76,1.35c1.9.19,3.78.55,5.68.81a2.66,2.66,0,0,1,2.54,1.79,2.57,2.57,0,0,1-.93,2.82c-1.38,1.32-2.7,2.72-4.13,4a2.15,2.15,0,0,0-.71,2.27,52.76,52.76,0,0,1,1,5.8,3.86,3.86,0,0,1-.85,2.54,2.13,2.13,0,0,1-2.78.22c-1.73-.92-3.51-1.77-5.2-2.76a2.3,2.3,0,0,0-2.63,0c-1.69,1-3.44,1.89-5.2,2.74S82.7,111.89,82.73,109.63Zm3-12.65c3.3,2.14,4,4.92,2.71,8.48,3-2.37,5.88-2.46,8.72.09,0-.41,2.62-8.49,2.85-8.9-3.9.61-6-1.4-7.15-5C92,95.53,89.54,97.05,85.75,97Z"/><path class="cls-1" d="M49.74,109.79c.34-1.94.69-4.08,1.1-6.2a2.13,2.13,0,0,0-.68-2.27c-1.43-1.28-2.75-2.67-4.12-4a2.6,2.6,0,0,1-1-2.81,2.77,2.77,0,0,1,2.67-1.85c1.9-.24,3.8-.49,5.67-.88a2.6,2.6,0,0,0,1.53-1.1c1-1.71,1.82-3.48,2.64-5.27a2.6,2.6,0,0,1,4.88,0c.82,1.78,1.67,3.56,2.64,5.26a2.57,2.57,0,0,0,1.53,1.11c1.92.4,3.88.63,5.82.9A2.71,2.71,0,0,1,75,94.51a2.63,2.63,0,0,1-1,2.81c-1.38,1.33-2.81,2.62-4.08,4a3.05,3.05,0,0,0-.7,2.08c.21,1.94.78,3.86.93,5.8a4.1,4.1,0,0,1-.87,2.67c-.68.84-1.8.7-2.78.18-1.83-1-3.63-2-5.51-2.83a2.52,2.52,0,0,0-1.89,0c-1.92.88-3.74,2-5.64,2.89A2.48,2.48,0,0,1,49.74,109.79ZM60,91.79c-1,3.8-3.49,5.22-7.21,5.2,3.27,2.11,4.07,4.84,2.74,8.46,3-2.38,5.91-2.41,8.95,0-1.29-3.62-.5-6.36,2.76-8.47C63.44,97.05,61.06,95.5,60,91.79Z"/></svg>