<svg id="Layer_1" data-name="Layer 1" xmlns="http://www.w3.org/2000/svg" viewBox="0 0 413.27 273.47"><title>adidas</title><path d="M383.65,207.26H368.13c-.48-2.58-1.23-4.39-2.25-5.41-1.66-1.66-4.49-2.51-8.41-2.51s-6.52.64-8,1.92a5,5,0,0,0-1.72,4c0,2.35,3.27,4.23,9.74,5.68a152.2,152.2,0,0,1,16,4.12c.85.32,1.6.59,2.14.85,6.59,3.11,9.85,7.82,9.85,14.14,0,7.7-3.21,13.32-9.58,16.86-.81.43-1.56.8-2.41,1.18a36.4,36.4,0,0,1-14.35,2.67c-8.08,0-14.61-1.45-19.59-4.28a18.51,18.51,0,0,1-7-6.87,19.31,19.31,0,0,1-2.33-9.67h16.26a7.71,7.71,0,0,0,3,6.48c2,1.55,5.36,2.35,10.12,2.35,3.59,0,6.26-.75,8-2.25a5,5,0,0,0,2-4c0-2.51-3.2-4.49-9.58-5.88-9.52-2-15.52-3.7-18-4.88-6.53-3-9.74-7.76-9.74-14.29a18.68,18.68,0,0,1,5.08-13.32c4.29-4.56,10.7-6.81,19.22-6.81,7,0,12.63,1,16.86,3a5.82,5.82,0,0,1,1,.54,16.94,16.94,0,0,1,6.89,6.59A19.58,19.58,0,0,1,383.65,207.26Z"/><path d="M375.35,169.36a1.28,1.28,0,0,0-.21-.8,1.16,1.16,0,0,0-.69-.53,8.06,8.06,0,0,0-1-.17H371v3h2.46a2.23,2.23,0,0,0,1.44-.43A1.32,1.32,0,0,0,375.35,169.36Zm1.29-1.61a2.36,2.36,0,0,1,.48,1.45,2.58,2.58,0,0,1-.8,1.92,3.12,3.12,0,0,1-2.09.92,2.53,2.53,0,0,1,.86.53l1.49,2,1.18,2h-1.93l-.91-1.6a8.89,8.89,0,0,0-1.49-2.14.57.57,0,0,0-.22-.16l-1.28-.38h-1v4.28h-1.61V166.47h3.48c.21,0,.43.05.59.05a5.69,5.69,0,0,1,1.92.27A2.29,2.29,0,0,1,376.64,167.75Z"/><path d="M381.19,171.4a7.69,7.69,0,0,0-1-3.91,7.5,7.5,0,0,0-2.89-2.89,8.29,8.29,0,0,0-3.8-1h-.05a8.26,8.26,0,0,0-3.8,1,7.46,7.46,0,0,0-2.9,2.89,7.63,7.63,0,0,0,0,7.76,7.29,7.29,0,0,0,2.84,2.83,7.67,7.67,0,0,0,3.86,1h.05a7.7,7.7,0,0,0,3.86-1,7.2,7.2,0,0,0,2.83-2.83A7.69,7.69,0,0,0,381.19,171.4Zm1.55,0a9.21,9.21,0,0,1-1.23,4.6,8.17,8.17,0,0,1-3.42,3.42,9,9,0,0,1-4.61,1.24h-.05a8.94,8.94,0,0,1-4.6-1.24A8.09,8.09,0,0,1,365.4,176a9.11,9.11,0,0,1-1.23-4.6,9.23,9.23,0,0,1,1.23-4.72,8.61,8.61,0,0,1,3.48-3.42,10,10,0,0,1,4.55-1.23h.05a9.57,9.57,0,0,1,4.55,1.23,8.32,8.32,0,0,1,3.48,3.42A9.33,9.33,0,0,1,382.74,171.4Z"/><polygon points="291.69 95.76 335.64 168.99 291.69 168.99 265.04 168.99 223.07 99.03 191.28 46.09 223.07 26.98 243.09 14.94 291.69 95.76"/><path d="M323.6,219.83v30H309v-3.32a31.21,31.21,0,0,1-17.13,5.09h-.16a31.8,31.8,0,0,1,0-63.59h.16A31.37,31.37,0,0,1,309,193.12v-3.47H323.6ZM309,223.15v-6.63a17.51,17.51,0,0,0-17.13-14.14h-.16a17.48,17.48,0,0,0,0,35h.16A17.56,17.56,0,0,0,309,223.15Z"/><path d="M255,219.83v30H240.36v-3.32a31.34,31.34,0,0,1-17.13,5.09h-.16a31.8,31.8,0,0,1,0-63.59h.16a31.49,31.49,0,0,1,17.13,5.08V169H255Zm-14.61,3.32v-6.63a17.51,17.51,0,0,0-17.13-14.14h-.16a17.48,17.48,0,0,0,0,35h.16A17.56,17.56,0,0,0,240.36,223.15Z"/><polygon points="223.07 140.19 240.31 168.99 223.07 168.99 169.76 168.99 130.58 103.79 128.87 100.95 130.58 99.94 180.73 69.75 223.07 140.19"/><rect x="169.81" y="188.04" width="15.9" height="61.82"/><rect x="169.81" y="169.31" width="15.9" height="13.97"/><path d="M162.53,219.83v30H147.92v-3.32a31.48,31.48,0,0,1-17.18,5.09h-.16a31.8,31.8,0,0,1,0-63.59h.16a31.64,31.64,0,0,1,17.18,5.08V169h14.61Zm-14.61,3.32v-6.63a17.53,17.53,0,0,0-17.18-14.14h-.16a17.48,17.48,0,0,0,0,35h.16A17.57,17.57,0,0,0,147.92,223.15Z"/><polygon points="130.58 144.9 145.03 168.99 130.58 168.99 74.43 168.99 66.51 155.77 118.37 124.61 130.58 144.9"/><path d="M93.22,219.83v30H78.61v-3.32a31.53,31.53,0,0,1-17.18,5.09h-.17a31.8,31.8,0,0,1,0-63.59h.17a31.69,31.69,0,0,1,17.18,5.08v-3.47H93.22Zm-14.61,3.32v-6.63a17.53,17.53,0,0,0-17.18-14.14h-.17a17.48,17.48,0,0,0,0,35h.17A17.58,17.58,0,0,0,78.61,223.15Z"/></svg>